<svg xmlns="http://www.w3.org/2000/svg" viewBox="0 0 512 512">
  <rect width="512" height="512" rx="100" fill="#0A0A0A"/>
  <rect x="146" y="48" width="220" height="364" rx="28" fill="#1C1C1E" stroke="#30D158" stroke-width="4"/>
  <rect x="162" y="72" width="188" height="256" rx="10" fill="#050505"/>
  <!-- LoRa arcs -->
  <path d="M210 172 Q256 140 302 172" stroke="#30D158" stroke-width="6" fill="none" stroke-linecap="round"/>
  <path d="M190 188 Q256 148 322 188" stroke="#30D158" stroke-width="4.5" fill="none" stroke-linecap="round" opacity="0.65"/>
  <path d="M170 204 Q256 156 342 204" stroke="#30D158" stroke-width="3" fill="none" stroke-linecap="round" opacity="0.35"/>
  <circle cx="256" cy="228" r="10" fill="#30D158"/>
  <!-- Keyboard grid 3×6 suggestion -->
  <g fill="#2A2A2A" stroke="#333" stroke-width="0.5">
    <rect x="162" y="348" width="28" height="20" rx="4"/>
    <rect x="196" y="348" width="28" height="20" rx="4"/>
    <rect x="230" y="348" width="28" height="20" rx="4"/>
    <rect x="264" y="348" width="28" height="20" rx="4"/>
    <rect x="298" y="348" width="28" height="20" rx="4"/>
    <rect x="332" y="348" width="18" height="20" rx="4"/>
  </g>
  <!-- Brand text -->
  <text x="256" y="462" font-family="system-ui,sans-serif" font-size="42" font-weight="700" fill="#30D158" text-anchor="middle" letter-spacing="3">MOKYA</text>
  <text x="256" y="496" font-family="system-ui,sans-serif" font-size="18" fill="#1A7A36" text-anchor="middle" letter-spacing="4">DIGITAL TWIN</text>
</svg>
